<svg width="30" height="30" viewBox="0 0 30 30" fill="none" xmlns="http://www.w3.org/2000/svg">
<path d="M25.8238 9.68872H21.25C21.0014 9.68872 20.7629 9.58995 20.5871 9.41413C20.4113 9.23832 20.3125 8.99986 20.3125 8.75122C20.3125 8.50258 20.4113 8.26412 20.5871 8.08831C20.7629 7.91249 21.0014 7.81372 21.25 7.81372H24.945L25.2113 3.68872C25.2314 3.44146 25.3471 3.21178 25.5338 3.04842C25.7205 2.88506 25.9635 2.80087 26.2112 2.81372C26.3345 2.8215 26.455 2.85359 26.5658 2.90814C26.6766 2.9627 26.7756 3.03864 26.8569 3.13159C26.9382 3.22454 27.0004 3.33267 27.0397 3.44974C27.0791 3.56681 27.0949 3.69051 27.0863 3.81372L26.7637 8.81372C26.7481 9.05191 26.6421 9.27515 26.4674 9.43779C26.2927 9.60043 26.0624 9.69019 25.8238 9.68872Z" fill="#F75709"/>
<path d="M15.0001 28.4375C12.6415 28.437 10.3245 27.8157 8.28207 26.636C6.23963 25.4563 4.54368 23.7598 3.36467 21.7169C2.18566 19.6741 1.56512 17.3569 1.56543 14.9983C1.56574 12.6396 2.18687 10.3226 3.36641 8.28005C4.54595 6.23751 6.24234 4.54143 8.28508 3.36226C10.3278 2.18309 12.645 1.56238 15.0036 1.5625C17.3623 1.56262 19.6794 2.18358 21.722 3.36296C23.7646 4.54234 25.4608 6.23859 26.6401 8.28125C26.7645 8.49674 26.7981 8.75279 26.7336 8.99307C26.6692 9.23335 26.5119 9.43818 26.2964 9.5625C26.0809 9.68682 25.8249 9.72045 25.5846 9.65598C25.3443 9.59152 25.1395 9.43424 25.0151 9.21875C23.6129 6.78803 21.3749 4.94998 18.7179 4.04708C16.061 3.14417 13.1664 3.238 10.5735 4.31108C7.98058 5.38416 5.86623 7.36329 4.62438 9.87972C3.38254 12.3962 3.09789 15.2782 3.82349 17.989C4.54909 20.6997 6.23544 23.0542 8.56833 24.6138C10.9012 26.1733 13.7215 26.8316 16.5038 26.4659C19.286 26.1002 21.8404 24.7354 23.691 22.626C25.5416 20.5165 26.5622 17.8062 26.5626 15C26.5626 14.7514 26.6614 14.5129 26.8372 14.3371C27.013 14.1613 27.2515 14.0625 27.5001 14.0625C27.7488 14.0625 27.9872 14.1613 28.1631 14.3371C28.3389 14.5129 28.4376 14.7514 28.4376 15C28.4337 18.5626 27.0167 21.9782 24.4975 24.4974C21.9783 27.0165 18.5628 28.4335 15.0001 28.4375Z" fill="#F75709"/>
<path d="M19.9997 19.6875C19.7973 19.6874 19.6003 19.6216 19.4385 19.5L14.4385 15.75C14.322 15.6627 14.2275 15.5494 14.1625 15.4193C14.0974 15.2891 14.0635 15.1455 14.0635 15V8.75C14.0635 8.50136 14.1622 8.2629 14.3381 8.08709C14.5139 7.91127 14.7523 7.8125 15.001 7.8125C15.2496 7.8125 15.4881 7.91127 15.6639 8.08709C15.8397 8.2629 15.9385 8.50136 15.9385 8.75V14.5312L20.5635 18C20.721 18.1181 20.8373 18.2828 20.8959 18.4708C20.9546 18.6587 20.9526 18.8603 20.8902 19.0471C20.8278 19.2338 20.7082 19.3961 20.5484 19.5111C20.3886 19.626 20.1966 19.6878 19.9997 19.6875Z" fill="#F75709"/>
</svg>
