<svg width="29" height="25" viewBox="0 0 29 25" fill="none" xmlns="http://www.w3.org/2000/svg">
<path d="M9.52565 11.3917H13.3229C13.5747 11.3917 13.8161 11.2917 13.9941 11.1137C14.1722 10.9356 14.2722 10.6942 14.2722 10.4424C14.2722 10.1906 14.1722 9.94917 13.9941 9.77114C13.8161 9.59311 13.5747 9.4931 13.3229 9.4931H11.4243V8.54379C11.4243 8.29202 11.3243 8.05056 11.1462 7.87253C10.9682 7.6945 10.7267 7.59448 10.475 7.59448C10.2232 7.59448 9.98173 7.6945 9.8037 7.87253C9.62567 8.05056 9.52565 8.29202 9.52565 8.54379V9.4931C8.77034 9.4931 8.04596 9.79314 7.51187 10.3272C6.97778 10.8613 6.67773 11.5857 6.67773 12.341C6.67773 13.0963 6.97778 13.8207 7.51187 14.3548C8.04596 14.8889 8.77034 15.1889 9.52565 15.1889H11.4243C11.676 15.1889 11.9175 15.289 12.0955 15.467C12.2736 15.645 12.3736 15.8865 12.3736 16.1382C12.3736 16.39 12.2736 16.6315 12.0955 16.8095C11.9175 16.9875 11.676 17.0875 11.4243 17.0875H7.62704C7.37527 17.0875 7.13381 17.1876 6.95578 17.3656C6.77775 17.5436 6.67773 17.7851 6.67773 18.0369C6.67773 18.2886 6.77775 18.5301 6.95578 18.7081C7.13381 18.8861 7.37527 18.9862 7.62704 18.9862H9.52565V19.9355C9.52565 20.1872 9.62567 20.4287 9.8037 20.6067C9.98173 20.7848 10.2232 20.8848 10.475 20.8848C10.7267 20.8848 10.9682 20.7848 11.1462 20.6067C11.3243 20.4287 11.4243 20.1872 11.4243 19.9355V18.9862C12.1796 18.9862 12.904 18.6861 13.4381 18.152C13.9721 17.6179 14.2722 16.8936 14.2722 16.1382C14.2722 15.3829 13.9721 14.6585 13.4381 14.1245C12.904 13.5904 12.1796 13.2903 11.4243 13.2903H9.52565C9.27388 13.2903 9.03242 13.1903 8.85439 13.0123C8.67636 12.8342 8.57635 12.5928 8.57635 12.341C8.57635 12.0892 8.67636 11.8478 8.85439 11.6698C9.03242 11.4917 9.27388 11.3917 9.52565 11.3917Z" fill="#F06427"/>
<path d="M26.1379 0H15.6955C15.0661 0 14.4625 0.25004 14.0174 0.695114C13.5723 1.14019 13.3223 1.74384 13.3223 2.37327V4.20543C11.7349 3.74997 10.062 3.67751 8.44119 3.994C6.82033 4.31049 5.29765 5.0069 3.99816 6.02606C2.69867 7.04521 1.65944 8.35805 0.965784 9.85678C0.272128 11.3555 -0.056168 12.9974 0.00784943 14.6476C0.0718668 16.2978 0.526372 17.9093 1.33405 19.3498C2.14173 20.7903 3.27954 22.0187 4.65408 22.9341C6.02861 23.8496 7.60067 24.4259 9.24117 24.6159C10.8817 24.8058 12.5438 24.604 14.0912 24.027C15.0405 24.9098 14.7937 24.682 26.1379 24.682C26.7673 24.682 27.371 24.4319 27.8161 23.9869C28.2611 23.5418 28.5112 22.9381 28.5112 22.3087C28.5112 19.0906 28.6156 18.8153 28.027 18.0368C28.6346 17.2299 28.5112 16.8407 28.5112 13.7649C28.5064 13.2507 28.3367 12.7516 28.027 12.341C28.3367 11.9304 28.5064 11.4313 28.5112 10.917C28.5112 7.69888 28.6156 7.42358 28.027 6.64515C28.6346 5.83824 28.5112 5.44902 28.5112 2.37327C28.5087 1.74461 28.2578 1.14241 27.8133 0.697875C27.3688 0.253342 26.7666 0.00249967 26.1379 0ZM15.2209 2.37327C15.2233 2.24814 15.2741 2.12882 15.3626 2.04033C15.4511 1.95183 15.5704 1.90104 15.6955 1.89861H26.1379C26.7645 1.89861 26.6126 2.40175 26.6126 5.22119C26.6101 5.34631 26.5594 5.46563 26.4709 5.55413C26.3824 5.64262 26.263 5.69341 26.1379 5.69584C14.4899 5.69584 17.1575 5.94266 15.2209 4.94589V2.37327ZM26.6126 8.06911V10.917C26.6101 11.0422 26.5594 11.1615 26.4709 11.25C26.3824 11.3385 26.263 11.3892 26.1379 11.3917H20.5085C20.1167 10.0024 19.4412 8.70946 18.5245 7.59445H26.1189C26.1825 7.59319 26.2457 7.60447 26.3049 7.62765C26.3642 7.65082 26.4182 7.68544 26.4641 7.72951C26.5099 7.77359 26.5466 7.82627 26.5721 7.88454C26.5976 7.94281 26.6113 8.00552 26.6126 8.06911ZM26.6126 13.7649V16.6129C26.6101 16.738 26.5594 16.8573 26.4709 16.9458C26.3824 17.0343 26.263 17.0851 26.1379 17.0875H20.5085C20.8883 15.86 21.0269 14.5705 20.9167 13.2903H26.1379C26.263 13.2927 26.3824 13.3435 26.4709 13.432C26.5594 13.5205 26.6101 13.6398 26.6126 13.7649ZM1.9306 14.2396C1.9306 12.5498 2.43168 10.898 3.37048 9.49294C4.30928 8.08793 5.64363 6.99285 7.2048 6.34619C8.76597 5.69954 10.4838 5.53034 12.1412 5.86C13.7985 6.18967 15.3208 7.00338 16.5157 8.19825C17.7106 9.39312 18.5243 10.9155 18.854 12.5728C19.1836 14.2301 19.0144 15.948 18.3678 17.5092C17.7211 19.0703 16.626 20.4047 15.221 21.3435C13.816 22.2823 12.1642 22.7834 10.4744 22.7834C8.20841 22.7834 6.03527 21.8832 4.433 20.2809C2.83074 18.6787 1.9306 16.5055 1.9306 14.2396ZM26.6126 22.3087C26.6101 22.4338 26.5594 22.5532 26.4709 22.6416C26.3824 22.7301 26.263 22.7809 26.1379 22.7834H16.455C17.8497 21.8036 18.9865 20.5008 19.7681 18.9861H26.1379C26.263 18.9886 26.3824 19.0393 26.4709 19.1278C26.5594 19.2163 26.6101 19.3357 26.6126 19.4608V22.3087Z" fill="#F06427"/>
</svg>
