<svg width="30" height="30" viewBox="0 0 30 30" fill="none" xmlns="http://www.w3.org/2000/svg">
<g clip-path="url(#clip0_289_2004)">
<path d="M26.1328 2.34375H23.4375V0.9375C23.4375 0.419766 23.0178 0 22.5 0C21.9822 0 21.5625 0.419766 21.5625 0.9375V2.34375H8.4375V0.9375C8.4375 0.419766 8.01779 0 7.5 0C6.98221 0 6.5625 0.419766 6.5625 0.9375V2.34375H3.86719C1.73479 2.34375 0 4.07854 0 6.21094V26.1328C0 28.2652 1.73479 30 3.86719 30H26.1328C28.2652 30 30 28.2652 30 26.1328V6.21094C30 4.07854 28.2652 2.34375 26.1328 2.34375ZM3.86719 4.21875H6.5625V5.15625C6.5625 5.67398 6.98221 6.09375 7.5 6.09375C8.01779 6.09375 8.4375 5.67398 8.4375 5.15625V4.21875H21.5625V5.15625C21.5625 5.67398 21.9822 6.09375 22.5 6.09375C23.0178 6.09375 23.4375 5.67398 23.4375 5.15625V4.21875H26.1328C27.2313 4.21875 28.125 5.11242 28.125 6.21094V8.4375H1.875V6.21094C1.875 5.11242 2.76867 4.21875 3.86719 4.21875ZM26.1328 28.125H3.86719C2.76867 28.125 1.875 27.2313 1.875 26.1328V10.3125H28.125V26.1328C28.125 27.2313 27.2313 28.125 26.1328 28.125Z" fill="#F06427"/>
<path d="M8.375 14H7.1875C6.53166 14 6 14.5317 6 15.1875V16.375C6 17.0308 6.53166 17.5625 7.1875 17.5625H8.375C9.03084 17.5625 9.5625 17.0308 9.5625 16.375V15.1875C9.5625 14.5317 9.03084 14 8.375 14Z" fill="#FFBA9C"/>
<path d="M8.375 19.9375H7.1875C6.53166 19.9375 6 20.4692 6 21.125V22.3125C6 22.9683 6.53166 23.5 7.1875 23.5H8.375C9.03084 23.5 9.5625 22.9683 9.5625 22.3125V21.125C9.5625 20.4692 9.03084 19.9375 8.375 19.9375Z" fill="#FFBA9C"/>
<path d="M15.5 14H14.3125C13.6567 14 13.125 14.5317 13.125 15.1875V16.375C13.125 17.0308 13.6567 17.5625 14.3125 17.5625H15.5C16.1558 17.5625 16.6875 17.0308 16.6875 16.375V15.1875C16.6875 14.5317 16.1558 14 15.5 14Z" fill="#FFBA9C"/>
<path d="M15.5 19.9375H14.3125C13.6567 19.9375 13.125 20.4692 13.125 21.125V22.3125C13.125 22.9683 13.6567 23.5 14.3125 23.5H15.5C16.1558 23.5 16.6875 22.9683 16.6875 22.3125V21.125C16.6875 20.4692 16.1558 19.9375 15.5 19.9375Z" fill="#FFBA9C"/>
<path d="M22.625 14H21.4375C20.7817 14 20.25 14.5317 20.25 15.1875V16.375C20.25 17.0308 20.7817 17.5625 21.4375 17.5625H22.625C23.2808 17.5625 23.8125 17.0308 23.8125 16.375V15.1875C23.8125 14.5317 23.2808 14 22.625 14Z" fill="#FFBA9C"/>
<path d="M22.625 19.9375H21.4375C20.7817 19.9375 20.25 20.4692 20.25 21.125V22.3125C20.25 22.9683 20.7817 23.5 21.4375 23.5H22.625C23.2808 23.5 23.8125 22.9683 23.8125 22.3125V21.125C23.8125 20.4692 23.2808 19.9375 22.625 19.9375Z" fill="#FFBA9C"/>
</g>
<defs>
<clipPath id="clip0_289_2004">
<rect width="30" height="30" fill="white"/>
</clipPath>
</defs>
</svg>
