<svg width="71" height="71" viewBox="0 0 71 71" fill="none" xmlns="http://www.w3.org/2000/svg">
<rect width="71" height="71" rx="3.52113" fill="white"/>
<g clip-path="url(#clip0_339_2716)">
<path d="M43.6995 32.7183V26.2839C43.6995 26.0997 43.6144 25.9296 43.494 25.7949L36.2801 18.2197C36.1455 18.0781 35.9541 18 35.7629 18H24.3255C22.214 18 20.5273 19.7219 20.5273 21.8337V43.4611C20.5273 45.5728 22.214 47.2664 24.3255 47.2664H33.3536C35.0612 50.1009 38.1652 52 41.701 52C47.0724 52 51.4589 47.6348 51.4589 42.2564C51.4661 37.5582 48.0929 33.6324 43.6995 32.7183ZM36.4716 20.4874L41.3114 25.5822H38.1722C37.2368 25.5822 36.4716 24.81 36.4716 23.8746V20.4874ZM24.3255 45.8491C23.0005 45.8491 21.9447 44.7861 21.9447 43.4611V21.8337C21.9447 20.5014 23.0005 19.4174 24.3255 19.4174H35.0542V23.8746C35.0542 25.5965 36.4503 26.9996 38.1722 26.9996H42.2821V32.5339C42.0697 32.5269 41.8995 32.5056 41.7153 32.5056C39.2422 32.5056 36.9675 33.4553 35.2526 34.9434H26.2531C25.8632 34.9434 25.5444 35.2622 25.5444 35.6518C25.5444 36.0417 25.8632 36.3605 26.2531 36.3605H33.9346C33.4314 37.0692 33.0133 37.7779 32.6875 38.5574H26.2531C25.8632 38.5574 25.5444 38.8762 25.5444 39.2661C25.5444 39.6557 25.8632 39.9747 26.2531 39.9747H32.2268C32.0496 40.6834 31.9575 41.4699 31.9575 42.2564C31.9575 43.5319 32.2055 44.7933 32.6519 45.8563H24.3255V45.8491ZM41.7083 50.5899C37.1164 50.5899 33.3819 46.8553 33.3819 42.2634C33.3819 37.6715 37.1092 33.937 41.7083 33.937C46.3072 33.937 50.0345 37.6715 50.0345 42.2634C50.0345 46.8553 46.3002 50.5899 41.7083 50.5899Z" fill="#F75709"/>
<path d="M26.2536 32.8104H33.4319C33.8218 32.8104 34.1406 32.4914 34.1406 32.1017C34.1406 31.7119 33.8218 31.3931 33.4319 31.3931H26.2536C25.8637 31.3931 25.5449 31.7119 25.5449 32.1017C25.5449 32.4914 25.8637 32.8104 26.2536 32.8104Z" fill="#F75709"/>
<path d="M45.337 42.1144L42.4247 45.2537V37.5156C42.4247 37.1257 42.1057 36.8069 41.7161 36.8069C41.3262 36.8069 41.0074 37.1257 41.0074 37.5156V45.2537L38.0736 42.1144C37.8043 41.8312 37.3509 41.8099 37.0674 42.0792C36.7838 42.3484 36.7626 42.7949 37.0321 43.0784L41.1775 47.5356C41.3122 47.6773 41.4963 47.7623 41.6948 47.7623C41.8932 47.7623 42.0774 47.6773 42.212 47.5356L46.3647 43.0784C46.634 42.7949 46.6197 42.3414 46.3362 42.0792C46.0457 41.8099 45.6065 41.8312 45.337 42.1144Z" fill="#F75709"/>
</g>
<defs>
<clipPath id="clip0_339_2716">
<rect width="34" height="34" fill="white" transform="translate(19 18)"/>
</clipPath>
</defs>
</svg>
