<svg width="27" height="27" viewBox="0 0 27 27" fill="none" xmlns="http://www.w3.org/2000/svg">
<g clip-path="url(#clip0_339_2957)">
<path d="M19.1457 7.0332C18.878 7.0332 18.6602 7.25105 18.6602 7.51875C18.6602 7.78645 18.878 8.0043 19.1457 8.0043C19.4134 8.0043 19.6312 7.78648 19.6312 7.51875C19.6312 7.25102 19.4134 7.0332 19.1457 7.0332Z" fill="#F06427"/>
<path d="M17.8493 3.33203H8.81473C5.79156 3.33203 3.33203 5.79156 3.33203 8.81477V17.8493C3.33203 20.8725 5.79156 23.332 8.81473 23.332H17.8493C20.8725 23.332 23.332 20.8725 23.332 17.8493V8.81477C23.332 5.79156 20.8725 3.33203 17.8493 3.33203ZM13.332 18.8177C10.3072 18.8177 7.84645 16.3568 7.84645 13.332C7.84645 10.3072 10.3073 7.84648 13.332 7.84648C16.3568 7.84648 18.8177 10.3073 18.8177 13.332C18.8177 16.3568 16.3568 18.8177 13.332 18.8177ZM19.1457 9.185C18.2268 9.185 17.4791 8.43734 17.4791 7.51836C17.4791 6.59938 18.2268 5.85168 19.1457 5.85168C20.0647 5.85168 20.8124 6.59934 20.8124 7.51832C20.8124 8.4373 20.0647 9.185 19.1457 9.185Z" fill="#F06427"/>
</g>
<defs>
<clipPath id="clip0_339_2957">
<rect width="20" height="20" fill="white" transform="translate(3.33203 3.33203)"/>
</clipPath>
</defs>
</svg>
