<svg width="26" height="25" viewBox="0 0 26 25" fill="none" xmlns="http://www.w3.org/2000/svg">
<path d="M20.5667 7H6.5C5.67123 7 5 7.6754 5 8.5V17.5C5 18.3295 5.67617 19 6.5 19H20.5667C21.3885 19 22.0667 18.3323 22.0667 17.5V8.5C22.0667 7.67687 21.3981 7 20.5667 7ZM20.3566 8C20.0501 8.30483 14.7761 13.5511 14.594 13.7322C14.3107 14.0156 13.934 14.1716 13.5333 14.1716C13.1327 14.1716 12.756 14.0155 12.4717 13.7313C12.3493 13.6095 7.13343 8.42113 6.71007 8H20.3566ZM6 17.2965V8.70417L10.3213 13.0027L6 17.2965ZM6.7107 18L11.0303 13.7079L11.7656 14.4393C12.2378 14.9115 12.8656 15.1716 13.5333 15.1716C14.2011 15.1716 14.8289 14.9115 15.3002 14.4403L16.0364 13.7079L20.356 18H6.7107ZM21.0667 17.2965L16.7454 13.0027L21.0667 8.70417V17.2965Z" fill="#F36E02"/>
</svg>
