<svg width="26" height="26" viewBox="0 0 26 26" fill="none" xmlns="http://www.w3.org/2000/svg">
<g clip-path="url(#clip0_63_1145)">
<path d="M11.7874 14.2645C13.2345 15.7115 14.6527 16.2986 15.1636 15.7877L15.865 15.0864C16.0971 14.8544 16.4118 14.7241 16.7399 14.7241C17.0681 14.7241 17.3828 14.8544 17.6148 15.0864L19.1896 16.6613C19.4217 16.8933 19.552 17.208 19.552 17.5362C19.552 17.8643 19.4217 18.179 19.1896 18.4111L17.9627 19.638C16.8034 20.7973 13.3746 19.2498 10.0883 15.9637C8.44599 14.3206 7.36885 12.773 6.67264 11.3177C5.97644 9.86237 5.83535 8.66866 6.41467 8.08934L7.64163 6.86239C7.87367 6.63035 8.18839 6.5 8.51654 6.5C8.84469 6.5 9.1594 6.63035 9.39144 6.86239L10.9663 8.4367C11.1983 8.66875 11.3286 8.98346 11.3286 9.31161C11.3286 9.63976 11.1983 9.95447 10.9663 10.1865L10.2643 10.8896C9.75345 11.4 10.3403 12.8181 11.7874 14.2645Z" fill="white"/>
</g>
<defs>
<clipPath id="clip0_63_1145">
<rect width="25" height="25" fill="white" transform="translate(0.0537109 0.5)"/>
</clipPath>
</defs>
</svg>
