<svg width="26" height="26" viewBox="0 0 26 26" fill="none" xmlns="http://www.w3.org/2000/svg">
<path d="M21.7357 5.1875H5.06901C4.3786 5.18833 3.7167 5.46296 3.2285 5.95116C2.7403 6.43935 2.46567 7.10125 2.46484 7.79167V18.2083C2.46567 18.8987 2.7403 19.5606 3.2285 20.0488C3.7167 20.537 4.3786 20.8117 5.06901 20.8125H21.7357C22.4261 20.8118 23.0881 20.5372 23.5763 20.049C24.0645 19.5607 24.3391 18.8988 24.3398 18.2083V7.79167C24.3391 7.10122 24.0645 6.43926 23.5763 5.95103C23.0881 5.46281 22.4261 5.18822 21.7357 5.1875ZM23.2982 18.2083C23.2977 18.6226 23.1329 19.0197 22.84 19.3127C22.5471 19.6056 22.1499 19.7704 21.7357 19.7708H5.06901C4.65475 19.7704 4.2576 19.6056 3.96467 19.3127C3.67175 19.0197 3.50698 18.6226 3.50651 18.2083V7.79167C3.50698 7.37741 3.67175 6.98025 3.96467 6.68733C4.2576 6.39441 4.65475 6.22964 5.06901 6.22917H21.7357C22.1499 6.22964 22.5471 6.39441 22.84 6.68733C23.1329 6.98025 23.2977 7.37741 23.2982 7.79167V18.2083ZM21.2148 9.875C21.2148 10.0131 21.16 10.1456 21.0623 10.2433C20.9646 10.341 20.8321 10.3958 20.694 10.3958H6.11068C5.97254 10.3958 5.84007 10.341 5.74239 10.2433C5.64472 10.1456 5.58984 10.0131 5.58984 9.875C5.58984 9.73687 5.64472 9.60439 5.74239 9.50671C5.84007 9.40904 5.97254 9.35417 6.11068 9.35417H20.694C20.8321 9.35417 20.9646 9.40904 21.0623 9.50671C21.16 9.60439 21.2148 9.73687 21.2148 9.875ZM21.2148 13C21.2148 13.1381 21.16 13.2706 21.0623 13.3683C20.9646 13.466 20.8321 13.5208 20.694 13.5208H6.11068C5.97254 13.5208 5.84007 13.466 5.74239 13.3683C5.64472 13.2706 5.58984 13.1381 5.58984 13C5.58984 12.8619 5.64472 12.7294 5.74239 12.6317C5.84007 12.534 5.97254 12.4792 6.11068 12.4792H20.694C20.8321 12.4792 20.9646 12.534 21.0623 12.6317C21.16 12.7294 21.2148 12.8619 21.2148 13ZM21.2148 16.125C21.2148 16.2631 21.16 16.3956 21.0623 16.4933C20.9646 16.591 20.8321 16.6458 20.694 16.6458H6.11068C5.97254 16.6458 5.84007 16.591 5.74239 16.4933C5.64472 16.3956 5.58984 16.2631 5.58984 16.125C5.58984 15.9869 5.64472 15.8544 5.74239 15.7567C5.84007 15.659 5.97254 15.6042 6.11068 15.6042H20.694C20.8321 15.6042 20.9646 15.659 21.0623 15.7567C21.16 15.8544 21.2148 15.9869 21.2148 16.125Z" fill="#F06427"/>
</svg>
