<svg width="25" height="25" viewBox="0 0 25 25" fill="none" xmlns="http://www.w3.org/2000/svg">
<path d="M21.6338 2.54163H3.36634C1.62301 2.54329 0.210508 3.95579 0.208008 5.69913V19.3C0.209674 21.0433 1.62301 22.4566 3.36634 22.4583H21.6338C23.3772 22.4558 24.7897 21.0433 24.7913 19.3V5.69913C24.7888 3.95663 23.3763 2.54413 21.6338 2.54163ZM23.5413 19.3C23.5405 20.3533 22.6872 21.2066 21.6338 21.2083H3.36634C2.31301 21.2075 1.45884 20.3533 1.45801 19.3V16.375L7.20051 10.6366C7.52717 10.3175 8.09718 10.3083 8.40301 10.6616L15.928 18.8716C16.4797 19.4708 17.4013 18.6325 16.8497 18.0266L15.1455 16.1666L17.3747 13.7608C17.6788 13.4158 18.253 13.4091 18.5722 13.7375L23.5413 18.7166V19.3ZM23.5413 16.9491L19.458 12.8583C18.6438 12.045 17.3247 12.0458 16.5113 12.86C16.493 12.8783 16.4755 12.8966 16.458 12.9158L14.2988 15.2491L9.32384 9.82246C8.56968 8.95329 7.10634 8.90913 6.31717 9.75413L1.45801 14.6075V5.69913C1.45967 4.64579 2.31301 3.79246 3.36634 3.79163H21.6338C22.6863 3.79329 23.5397 4.64663 23.5413 5.69913V16.9491Z" fill="#212121"/>
<path d="M14.0574 5.92664C10.8757 6.00747 10.8782 10.6633 14.0557 10.75C17.2366 10.6708 17.2374 6.0083 14.0574 5.92664ZM14.0574 9.49997C12.5291 9.47414 12.5316 7.20747 14.0557 7.1758V7.17664C15.5832 7.20164 15.5841 9.4733 14.0574 9.49997Z" fill="#212121"/>
</svg>
