<svg width="27" height="27" viewBox="0 0 27 27" fill="none" xmlns="http://www.w3.org/2000/svg">
<g clip-path="url(#clip0_339_2966)">
<path d="M8.19189 13.8749L3.3807 11.7697C2.83849 11.5327 2.87517 10.7514 3.43735 10.5664L21.7325 4.53522C22.2111 4.37758 22.6775 4.80487 22.5622 5.29574L18.9063 20.8401C18.7971 21.3045 18.2391 21.4939 17.87 21.1917L13.5741 17.6767L8.19189 13.8749Z" fill="#F06427"/>
<path d="M18.1599 7.89214L8.19141 13.8751L9.41112 19.5328C9.52053 20.0403 10.1188 20.2641 10.5344 19.9528L13.5737 17.6768L11.073 15.6303L18.4749 8.29737C18.6919 8.08234 18.4219 7.73488 18.1599 7.89214Z" fill="#D24609"/>
<path d="M9.81445 20.0308C10.0385 20.1321 10.3132 20.1189 10.5355 19.9524L13.5748 17.6764L12.3245 16.6531L11.0741 15.6299L9.81445 20.0308Z" fill="#F06427"/>
</g>
<defs>
<clipPath id="clip0_339_2966">
<rect width="19.5858" height="19.5858" fill="white" transform="translate(2.99414 3.12695)"/>
</clipPath>
</defs>
</svg>
