<svg width="25" height="25" viewBox="0 0 25 25" fill="none" xmlns="http://www.w3.org/2000/svg">
<path d="M11.7821 5.07465H11.7821V5.96867V6.09317L11.6598 6.1161C9.98238 6.43042 8.59655 7.49471 8.59655 9.30828C8.59655 10.5897 9.17443 11.6196 9.94239 12.2162C10.6763 12.7864 11.5 13.0592 12.2637 13.3122C12.3122 13.3282 12.3604 13.3442 12.4084 13.3602C13.1991 13.6234 13.9146 13.8845 14.3304 14.2075C14.5326 14.3646 14.6993 14.5221 14.8103 14.7552C14.92 14.9858 14.9677 15.2747 14.9677 15.6826C14.9677 16.1966 14.6559 16.5711 14.2274 16.8093C13.8013 17.0463 13.2438 17.1601 12.6954 17.1601C12.147 17.1601 11.5895 17.0463 11.1634 16.8093C10.7349 16.5711 10.423 16.1966 10.423 15.6826V15.6793L10.4231 15.6793C10.4258 15.5578 10.4042 15.437 10.3595 15.324C10.3148 15.211 10.248 15.1081 10.1629 15.0212C10.0779 14.9343 9.97627 14.8653 9.86411 14.8181C9.75195 14.771 9.63149 14.7467 9.5098 14.7467C9.3881 14.7467 9.26764 14.771 9.15548 14.8181C9.04332 14.8653 8.94173 14.9343 8.85667 15.0212C8.7716 15.1081 8.70478 15.211 8.66011 15.324C8.61544 15.437 8.59382 15.5578 8.59651 15.6793L8.59659 15.6826H8.59655C8.59655 17.4947 9.98373 18.5611 11.6599 18.8769L11.7821 18.8999V19.0243V19.9141V19.9175L11.7821 19.9175C11.7794 20.0389 11.801 20.1597 11.8457 20.2727C11.8904 20.3857 11.9572 20.4887 12.0423 20.5755C12.1273 20.6624 12.2289 20.7314 12.3411 20.7786C12.4532 20.8257 12.5737 20.85 12.6954 20.85C12.8171 20.85 12.9375 20.8257 13.0497 20.7786C13.1619 20.7314 13.2634 20.6624 13.3485 20.5755C13.4336 20.4887 13.5004 20.3857 13.5451 20.2727C13.5897 20.1597 13.6114 20.0389 13.6087 19.9175L13.6086 19.9141H13.6086V19.0243V18.8999L13.7309 18.8769C15.4075 18.5612 16.7963 17.4949 16.7963 15.6826C16.7963 14.4014 16.2165 13.3714 15.4484 12.7746C14.7108 12.2016 13.8825 11.9271 13.1159 11.6729C13.0712 11.6581 13.0266 11.6434 12.9823 11.6286C12.192 11.3655 11.4763 11.1064 11.0604 10.7833C10.8582 10.6262 10.6914 10.4688 10.5805 10.2357C10.4707 10.005 10.423 9.71619 10.423 9.30828C10.423 8.79429 10.7349 8.41979 11.1634 8.18152C11.5895 7.9446 12.147 7.83073 12.6954 7.83073C13.2438 7.83073 13.8013 7.9446 14.2274 8.18152C14.6559 8.41979 14.9677 8.79429 14.9677 9.30828C14.9677 9.55039 15.064 9.78261 15.2354 9.95386C15.4069 10.1251 15.6395 10.2214 15.882 10.2214C16.1245 10.2214 16.3571 10.1251 16.5286 9.95386C16.7 9.78261 16.7963 9.55039 16.7963 9.30828C16.7963 7.49785 15.4072 6.43441 13.7308 6.11814L13.6086 6.09509V5.97074V5.07465V5.07288L13.6086 5.07288C13.6101 4.95088 13.587 4.82982 13.5407 4.71688C13.4945 4.60394 13.426 4.50141 13.3394 4.41536C13.2527 4.32931 13.1497 4.26149 13.0363 4.21593C12.9229 4.17037 12.8015 4.148 12.6793 4.15014L11.7821 5.07465ZM11.7821 5.07465L11.7821 5.07288M11.7821 5.07465L11.7821 5.07288M11.7821 5.07288C11.7793 4.83196 11.872 4.59967 12.0401 4.42677C12.2082 4.25386 12.438 4.15439 12.6793 4.15014L11.7821 5.07288Z" fill="#F36E02" stroke="white" stroke-width="0.3"/>
</svg>
